<?xml version="1.0" encoding="UTF-8" standalone="no"?>
<svg width="1012px" height="573px" viewBox="0 0 1012 573" version="1.1" xmlns="http://www.w3.org/2000/svg" xmlns:xlink="http://www.w3.org/1999/xlink" xmlns:sketch="http://www.bohemiancoding.com/sketch/ns">
    <!-- Generator: Sketch 3.2.2 (9983) - http://www.bohemiancoding.com/sketch -->
    <title>setup illustration</title>
    <desc>Created with Sketch.</desc>
    <defs>
        <rect id="path-1" x="0" y="0" width="219" height="171" rx="4"></rect>
        <rect id="path-3" x="0" y="0" width="219" height="171" rx="4"></rect>
    </defs>
    <g id="Page-1" stroke="none" stroke-width="1" fill="none" fill-rule="evenodd" sketch:type="MSPage">
        <path d="M703.5,253.5 L643.947502,193.947502" id="Line-3" stroke="#71C9B6" stroke-linecap="square" sketch:type="MSShapeGroup"></path>
        <path id="Line-3-decoration-1" d="M644.10303,194.10303 C646.033432,197.518356 647.688062,200.445778 649.618463,203.861104 C651.103388,202.37618 652.37618,201.103388 653.861104,199.618463 C650.445778,197.688062 647.518356,196.033432 644.10303,194.10303 C644.10303,194.10303 644.10303,194.10303 644.10303,194.10303 Z" stroke="#71C9B6" stroke-linecap="square"></path>
        <path d="M704.5,268.5 L584.483334,388.516663" id="Line-4" stroke="#71C9B6" stroke-linecap="square" sketch:type="MSShapeGroup"></path>
        <path id="Line-4-decoration-1" d="M584.998953,388.001045 C588.414278,386.070643 591.3417,384.416013 594.757026,382.485612 C593.272102,381.000688 591.99931,379.727895 590.514386,378.242971 C588.583984,381.658297 586.929354,384.585719 584.998953,388.001045 C584.998953,388.001045 584.998953,388.001045 584.998953,388.001045 Z" stroke="#71C9B6" stroke-linecap="square"></path>
        <path d="M476.5,382.5 L476.5,181.5" id="Line-5" stroke="#71C9B6" stroke-linecap="square" sketch:type="MSShapeGroup"></path>
        <path id="Line-5-decoration-1" d="M476.5,181.5 C475.45,185.28 474.55,188.52 473.5,192.3 C475.6,192.3 477.4,192.3 479.5,192.3 C478.45,188.52 477.55,185.28 476.5,181.5 C476.5,181.5 476.5,181.5 476.5,181.5 Z" stroke="#71C9B6" stroke-linecap="square"></path>
        <path d="M297.124164,241.875839 L362.5,176.5" id="Line" stroke="#71C9B6" stroke-linecap="square" sketch:type="MSShapeGroup"></path>
        <path id="Line-decoration-1" d="M362.177986,176.822014 C358.76266,178.752416 355.835238,180.407046 352.419913,182.337447 C353.904837,183.822371 355.177629,185.095163 356.662553,186.580088 C358.592955,183.164762 360.247585,180.23734 362.177986,176.822014 C362.177986,176.822014 362.177986,176.822014 362.177986,176.822014 Z" stroke="#71C9B6" stroke-linecap="square"></path>
        <path d="M302.5,329.5 L362.5,389.5" id="Line-2" stroke="#71C9B6" stroke-linecap="square" sketch:type="MSShapeGroup"></path>
        <path id="Line-2-decoration-1" d="M361.89697,388.89697 C359.966568,385.481644 358.311938,382.554222 356.381537,379.138896 C354.896612,380.62382 353.62382,381.896612 352.138896,383.381537 C355.554222,385.311938 358.481644,386.966568 361.89697,388.89697 C361.89697,388.89697 361.89697,388.89697 361.89697,388.89697 Z" stroke="#71C9B6" stroke-linecap="square"></path>
        <g id="Global-SCSS-+-css-doc" sketch:type="MSLayerGroup" transform="translate(10.000000, 218.000000)">
            <text id="Global-SCSS" sketch:type="MSTextLayer" font-family="Apercu" font-size="20" font-weight="normal" fill="#000000">
                <tspan x="88" y="94">Global SCSS</tspan>
            </text>
            <g id="css-doc" transform="translate(208.000000, 0.000000)" sketch:type="MSShapeGroup">
                <path d="M58.8964211,0.120469083 L0.119113573,0.120469083 L0.119113573,112.879531 L85.8808864,112.879531 L85.8808864,27.4117761 L58.8964211,0.120469083 L58.8964211,0.120469083 Z M60.1523546,7.52377612 L78.5606427,26.141791 L60.1523546,26.141791 L60.1523546,7.52377612 L60.1523546,7.52377612 Z M4.40720222,108.542644 L4.40720222,4.45735608 L55.8642659,4.45735608 L55.8642659,30.478678 L81.5927978,30.478678 L81.5927978,108.542644 L4.40720222,108.542644 L4.40720222,108.542644 Z" id="Shape" fill="#00C8B4"></path>
                <g id="Group" transform="translate(18.105263, 40.718550)" fill="#000000">
                    <path d="M6.97505263,0.586925373 C6.40426039,0.845211087 5.87992244,1.22950746 5.41657064,1.72873134 C4.95298061,2.22723241 4.56705263,2.85439446 4.2692687,3.59311087 C3.97100831,4.33206823 3.81973407,5.1948678 3.81973407,6.15717484 L3.81973407,14.2695629 C3.81973407,15.0249041 3.71777285,15.7325394 3.51694737,16.3727122 C3.31636011,17.0099936 3.04787812,17.5605373 2.71936288,18.0091642 C2.39275346,18.4546588 2.01230471,18.8032964 1.58826039,19.046162 C1.16778947,19.2871002 0.728022161,19.4092559 0.280631579,19.4092559 L0.161518006,19.4092559 L0.161518006,22.6811962 L0.280631579,22.6811962 C0.728498615,22.6811962 1.16921884,22.7966055 1.59088089,23.0238102 C2.01492521,23.2527015 2.39489751,23.5866418 2.72031579,24.0155117 C3.04787812,24.4487186 3.31588366,24.9915522 3.51670914,25.6278699 C3.71777285,26.2685245 3.81949584,26.9910981 3.81949584,27.7753518 L3.81949584,35.8431663 C3.81949584,36.8054733 3.97077008,37.668032 4.26903047,38.4069893 C4.5668144,39.1457058 4.95274238,39.7733497 5.41633241,40.2716098 C5.87944598,40.7708337 6.40402216,41.1548891 6.9748144,41.4131748 C7.54655956,41.6717015 8.12640443,41.8027719 8.69814958,41.8027719 L11.9023047,41.8027719 L11.9023047,38.8871791 L9.57959003,38.8871791 C9.16960111,38.8871791 8.83941828,38.7840576 8.59785596,38.5809467 C8.34843213,38.3708486 8.1445097,38.0853369 7.99180609,37.7333262 C7.83505263,37.3733646 7.72689751,36.9649744 7.67019945,36.5182751 C7.61231025,36.0686844 7.58300831,35.6164435 7.58300831,35.174322 L7.58300831,27.0619339 C7.58300831,25.9225373 7.4241108,24.961435 7.11108033,24.2068166 C6.79876454,23.4555714 6.42832133,22.8363603 6.00951801,22.3672537 C5.58904709,21.8974243 5.15428255,21.5504733 4.71689751,21.3370021 C4.38742936,21.1765373 4.10846537,21.068838 3.87214404,21.0107719 C4.11037119,20.9302985 4.39552909,20.7975416 4.72285319,20.6144286 C5.15880886,20.371081 5.59190582,20.0024456 6.01094737,19.5184009 C6.42903601,19.0355608 6.79900277,18.4177953 7.11084211,17.6814883 C7.42434903,16.942049 7.58324654,16.0337122 7.58324654,14.9817761 L7.58324654,6.82505544 C7.58324654,6.35329851 7.61254848,5.8861194 7.67043767,5.43604691 C7.72689751,4.98982942 7.8348144,4.58914925 7.99109141,4.24484861 C8.14355679,3.90753518 8.34771745,3.62949254 8.59785596,3.41818977 C8.83941828,3.21507889 9.16960111,3.11195736 9.57959003,3.11195736 L11.9023047,3.11195736 L11.9023047,0.196605544 L8.69814958,0.196605544 C8.12640443,0.197810235 7.54655956,0.328639659 6.97505263,0.586925373 L6.97505263,0.586925373 Z" id="Shape"></path>
                    <path d="M49.5088421,19.408774 C49.0595457,19.408774 48.6190637,19.2933646 48.198831,19.0661599 C47.7747867,18.8379915 47.3952909,18.4973049 47.0705873,18.0532559 C46.7415956,17.6055928 46.4731136,17.0548081 46.2730028,16.4168038 C46.0717008,15.7792814 45.9702161,15.0567079 45.9702161,14.269322 L45.9702161,6.15717484 C45.9702161,5.19703625 45.8189418,4.33423667 45.5204432,3.59311087 C45.2224211,2.85511727 44.8364931,2.22795522 44.3733795,1.72873134 C43.9090748,1.22926652 43.3847368,0.845211087 42.8146593,0.586925373 C42.2431524,0.328639659 41.6630693,0.197569296 41.0915623,0.197569296 L37.8876454,0.197569296 L37.8876454,3.11292111 L40.2103601,3.11292111 C40.6201108,3.11292111 40.9498172,3.21604264 41.1916177,3.41915352 C41.4400886,3.62876972 41.6435346,3.91379957 41.7979058,4.26677399 C41.9537064,4.62601279 42.0616233,5.03488486 42.1195125,5.48158422 C42.1774017,5.93840299 42.2067036,6.42052026 42.2067036,6.91468443 L42.2067036,14.9824989 C42.2067036,16.1226183 42.3656011,17.0837207 42.6786316,17.8373753 C42.9911856,18.5910299 43.3616288,19.2095181 43.7797175,19.6769382 C44.1989972,20.1472495 44.634,20.4942004 45.072338,20.7071898 C45.3963269,20.865968 45.6800554,20.9753539 45.9178061,21.03342 C45.6791025,21.1141343 45.3939446,21.2468913 45.0666205,21.4295224 C44.6299501,21.6738337 44.1968532,22.0422281 43.7787645,22.5255501 C43.3613906,23.0074264 42.9914238,23.6254328 42.6793463,24.3624627 C42.3660776,25.1026247 42.2071801,26.0112026 42.2071801,27.0621748 L42.2071801,35.1745629 C42.2071801,35.6395736 42.1778781,36.1065117 42.1199889,36.5633305 C42.0628144,37.0100299 41.9548975,37.4111919 41.7993352,37.753806 C41.6454404,38.0932878 41.4410416,38.3713305 41.1920942,38.5811876 C40.9507701,38.7847804 40.6208255,38.88742 40.2108366,38.88742 L37.8881219,38.88742 L37.8881219,41.8027719 L41.0920388,41.8027719 C41.6630693,41.8027719 42.2431524,41.6717015 42.8151357,41.4131748 C43.3854515,41.1551301 43.9097895,40.7710746 44.373856,40.2716098 C44.8369695,39.7726269 45.2228975,39.1452239 45.5209197,38.4069893 C45.8194183,37.6663454 45.9706925,36.8037868 45.9706925,35.8431663 L45.9706925,27.7753518 C45.9706925,27.0190469 46.072892,26.3191215 46.2734792,25.6953326 C46.47359,25.0727484 46.742072,24.5294328 47.0713019,24.080565 C47.3969584,23.6360341 47.7776454,23.2873966 48.2021662,23.044049 C48.62359,22.8028699 49.0631191,22.6807143 49.5095568,22.6807143 L49.6286704,22.6807143 L49.6286704,19.408774 L49.5088421,19.408774 L49.5088421,19.408774 Z" id="Shape"></path>
                </g>
                <ellipse id="Oval" fill="#000000" cx="43" cy="73.6198614" rx="2.14404432" ry="2.1684435"></ellipse>
                <ellipse id="Oval" fill="#000000" cx="51.5761773" cy="73.6198614" rx="2.14404432" ry="2.1684435"></ellipse>
                <ellipse id="Oval" fill="#000000" cx="34.4238227" cy="73.6198614" rx="2.14404432" ry="2.1684435"></ellipse>
            </g>
            <text id="github.com/zalora/gl" sketch:type="MSTextLayer" font-family="Apercu" font-size="14" font-weight="normal" fill="#000000">
                <tspan x="0" y="113">github.com/zalora/global-scss</tspan>
            </text>
        </g>
        <g id="Mobile-SCSS-+-css-doc" sketch:type="MSLayerGroup" transform="translate(703.000000, 218.000000)">
            <text id="Mobile-SCSS" sketch:type="MSTextLayer" font-family="Apercu" font-size="20" font-weight="normal" fill="#000000">
                <tspan x="96" y="92">Mobile SCSS</tspan>
            </text>
            <text id="github.com/zalora/mo" sketch:type="MSTextLayer" font-family="Apercu" font-size="14" font-weight="normal" fill="#000000">
                <tspan x="97" y="111">github.com/zalora/mobile-scss</tspan>
            </text>
            <g id="css-doc" sketch:type="MSShapeGroup">
                <path d="M58.8964211,0.120469083 L0.119113573,0.120469083 L0.119113573,112.879531 L85.8808864,112.879531 L85.8808864,27.4117761 L58.8964211,0.120469083 L58.8964211,0.120469083 Z M60.1523546,7.52377612 L78.5606427,26.141791 L60.1523546,26.141791 L60.1523546,7.52377612 L60.1523546,7.52377612 Z M4.40720222,108.542644 L4.40720222,4.45735608 L55.8642659,4.45735608 L55.8642659,30.478678 L81.5927978,30.478678 L81.5927978,108.542644 L4.40720222,108.542644 L4.40720222,108.542644 Z" id="Shape" fill="#00C8B4"></path>
                <g id="Group" transform="translate(18.105263, 40.718550)" fill="#000000">
                    <path d="M6.97505263,0.586925373 C6.40426039,0.845211087 5.87992244,1.22950746 5.41657064,1.72873134 C4.95298061,2.22723241 4.56705263,2.85439446 4.2692687,3.59311087 C3.97100831,4.33206823 3.81973407,5.1948678 3.81973407,6.15717484 L3.81973407,14.2695629 C3.81973407,15.0249041 3.71777285,15.7325394 3.51694737,16.3727122 C3.31636011,17.0099936 3.04787812,17.5605373 2.71936288,18.0091642 C2.39275346,18.4546588 2.01230471,18.8032964 1.58826039,19.046162 C1.16778947,19.2871002 0.728022161,19.4092559 0.280631579,19.4092559 L0.161518006,19.4092559 L0.161518006,22.6811962 L0.280631579,22.6811962 C0.728498615,22.6811962 1.16921884,22.7966055 1.59088089,23.0238102 C2.01492521,23.2527015 2.39489751,23.5866418 2.72031579,24.0155117 C3.04787812,24.4487186 3.31588366,24.9915522 3.51670914,25.6278699 C3.71777285,26.2685245 3.81949584,26.9910981 3.81949584,27.7753518 L3.81949584,35.8431663 C3.81949584,36.8054733 3.97077008,37.668032 4.26903047,38.4069893 C4.5668144,39.1457058 4.95274238,39.7733497 5.41633241,40.2716098 C5.87944598,40.7708337 6.40402216,41.1548891 6.9748144,41.4131748 C7.54655956,41.6717015 8.12640443,41.8027719 8.69814958,41.8027719 L11.9023047,41.8027719 L11.9023047,38.8871791 L9.57959003,38.8871791 C9.16960111,38.8871791 8.83941828,38.7840576 8.59785596,38.5809467 C8.34843213,38.3708486 8.1445097,38.0853369 7.99180609,37.7333262 C7.83505263,37.3733646 7.72689751,36.9649744 7.67019945,36.5182751 C7.61231025,36.0686844 7.58300831,35.6164435 7.58300831,35.174322 L7.58300831,27.0619339 C7.58300831,25.9225373 7.4241108,24.961435 7.11108033,24.2068166 C6.79876454,23.4555714 6.42832133,22.8363603 6.00951801,22.3672537 C5.58904709,21.8974243 5.15428255,21.5504733 4.71689751,21.3370021 C4.38742936,21.1765373 4.10846537,21.068838 3.87214404,21.0107719 C4.11037119,20.9302985 4.39552909,20.7975416 4.72285319,20.6144286 C5.15880886,20.371081 5.59190582,20.0024456 6.01094737,19.5184009 C6.42903601,19.0355608 6.79900277,18.4177953 7.11084211,17.6814883 C7.42434903,16.942049 7.58324654,16.0337122 7.58324654,14.9817761 L7.58324654,6.82505544 C7.58324654,6.35329851 7.61254848,5.8861194 7.67043767,5.43604691 C7.72689751,4.98982942 7.8348144,4.58914925 7.99109141,4.24484861 C8.14355679,3.90753518 8.34771745,3.62949254 8.59785596,3.41818977 C8.83941828,3.21507889 9.16960111,3.11195736 9.57959003,3.11195736 L11.9023047,3.11195736 L11.9023047,0.196605544 L8.69814958,0.196605544 C8.12640443,0.197810235 7.54655956,0.328639659 6.97505263,0.586925373 L6.97505263,0.586925373 Z" id="Shape"></path>
                    <path d="M49.5088421,19.408774 C49.0595457,19.408774 48.6190637,19.2933646 48.198831,19.0661599 C47.7747867,18.8379915 47.3952909,18.4973049 47.0705873,18.0532559 C46.7415956,17.6055928 46.4731136,17.0548081 46.2730028,16.4168038 C46.0717008,15.7792814 45.9702161,15.0567079 45.9702161,14.269322 L45.9702161,6.15717484 C45.9702161,5.19703625 45.8189418,4.33423667 45.5204432,3.59311087 C45.2224211,2.85511727 44.8364931,2.22795522 44.3733795,1.72873134 C43.9090748,1.22926652 43.3847368,0.845211087 42.8146593,0.586925373 C42.2431524,0.328639659 41.6630693,0.197569296 41.0915623,0.197569296 L37.8876454,0.197569296 L37.8876454,3.11292111 L40.2103601,3.11292111 C40.6201108,3.11292111 40.9498172,3.21604264 41.1916177,3.41915352 C41.4400886,3.62876972 41.6435346,3.91379957 41.7979058,4.26677399 C41.9537064,4.62601279 42.0616233,5.03488486 42.1195125,5.48158422 C42.1774017,5.93840299 42.2067036,6.42052026 42.2067036,6.91468443 L42.2067036,14.9824989 C42.2067036,16.1226183 42.3656011,17.0837207 42.6786316,17.8373753 C42.9911856,18.5910299 43.3616288,19.2095181 43.7797175,19.6769382 C44.1989972,20.1472495 44.634,20.4942004 45.072338,20.7071898 C45.3963269,20.865968 45.6800554,20.9753539 45.9178061,21.03342 C45.6791025,21.1141343 45.3939446,21.2468913 45.0666205,21.4295224 C44.6299501,21.6738337 44.1968532,22.0422281 43.7787645,22.5255501 C43.3613906,23.0074264 42.9914238,23.6254328 42.6793463,24.3624627 C42.3660776,25.1026247 42.2071801,26.0112026 42.2071801,27.0621748 L42.2071801,35.1745629 C42.2071801,35.6395736 42.1778781,36.1065117 42.1199889,36.5633305 C42.0628144,37.0100299 41.9548975,37.4111919 41.7993352,37.753806 C41.6454404,38.0932878 41.4410416,38.3713305 41.1920942,38.5811876 C40.9507701,38.7847804 40.6208255,38.88742 40.2108366,38.88742 L37.8881219,38.88742 L37.8881219,41.8027719 L41.0920388,41.8027719 C41.6630693,41.8027719 42.2431524,41.6717015 42.8151357,41.4131748 C43.3854515,41.1551301 43.9097895,40.7710746 44.373856,40.2716098 C44.8369695,39.7726269 45.2228975,39.1452239 45.5209197,38.4069893 C45.8194183,37.6663454 45.9706925,36.8037868 45.9706925,35.8431663 L45.9706925,27.7753518 C45.9706925,27.0190469 46.072892,26.3191215 46.2734792,25.6953326 C46.47359,25.0727484 46.742072,24.5294328 47.0713019,24.080565 C47.3969584,23.6360341 47.7776454,23.2873966 48.2021662,23.044049 C48.62359,22.8028699 49.0631191,22.6807143 49.5095568,22.6807143 L49.6286704,22.6807143 L49.6286704,19.408774 L49.5088421,19.408774 L49.5088421,19.408774 Z" id="Shape"></path>
                </g>
                <ellipse id="Oval" fill="#000000" cx="43" cy="73.6198614" rx="2.14404432" ry="2.1684435"></ellipse>
                <ellipse id="Oval" fill="#000000" cx="51.5761773" cy="73.6198614" rx="2.14404432" ry="2.1684435"></ellipse>
                <ellipse id="Oval" fill="#000000" cx="34.4238227" cy="73.6198614" rx="2.14404432" ry="2.1684435"></ellipse>
            </g>
        </g>
        <g id="Mobile-SCSS-+-css-doc" sketch:type="MSLayerGroup" transform="translate(455.000000, 249.000000)">
            <text id="Onsite-SCSS" sketch:type="MSTextLayer" font-family="Apercu" font-size="14" font-weight="normal" fill="#000000">
                <tspan x="54" y="42">Onsite SCSS</tspan>
            </text>
            <text id="static.zalora.com" sketch:type="MSTextLayer" font-family="Apercu" font-size="12" font-weight="normal" fill="#000000">
                <tspan x="54" y="57">static.zalora.com</tspan>
            </text>
            <g id="css-doc" transform="translate(0.000000, 0.093023)" sketch:type="MSShapeGroup">
                <rect id="Rectangle-10" fill="#FFFFFF" x="13" y="1.90697674" width="13" height="54"></rect>
                <path d="M30.1330526,0.0616353449 L0.0609418283,0.0616353449 L0.0609418283,57.7523181 L43.9390582,57.7523181 L43.9390582,14.0246296 L30.1330526,0.0616353449 L30.1330526,0.0616353449 Z M30.7756233,3.84937383 L40.1938172,13.3748698 L30.7756233,13.3748698 L30.7756233,3.84937383 L30.7756233,3.84937383 Z M2.25484765,55.5334457 L2.25484765,2.28050776 L28.5817175,2.28050776 L28.5817175,15.5937423 L41.7451524,15.5937423 L41.7451524,55.5334457 L2.25484765,55.5334457 L2.25484765,55.5334457 Z" id="Shape" fill="#00C8B4"></path>
                <g id="Group" transform="translate(9.263158, 20.832747)" fill="#000000">
                    <path d="M3.56863158,0.3002874 C3.27659834,0.43243358 3.00833241,0.62905033 2.7712687,0.884467199 C2.5340831,1.13951426 2.33663158,1.46038786 2.18427701,1.8383358 C2.03167867,2.216407 1.95428255,2.65783934 1.95428255,3.15018248 L1.95428255,7.3007066 C1.95428255,7.68716021 1.90211634,8.04920623 1.79936842,8.37673645 C1.69674238,8.70278743 1.5593795,8.98446095 1.39130194,9.21399098 C1.22419945,9.44191848 1.02955125,9.62029117 0.812598338,9.74454802 C0.597473684,9.86781871 0.372476454,9.93031695 0.143578947,9.93031695 L0.0826371191,9.93031695 L0.0826371191,11.6043329 L0.143578947,11.6043329 C0.372720222,11.6043329 0.598204986,11.6633796 0.813939058,11.7796238 C1.03089197,11.896731 1.2252964,12.0675842 1.39178947,12.287006 C1.5593795,12.5086467 1.69649861,12.7863756 1.79924654,13.1119335 C1.90211634,13.4397102 1.95416066,13.809399 1.95416066,14.2106451 L1.95416066,18.3383642 C1.95416066,18.8307073 2.03155679,19.2720164 2.18415512,19.6500876 C2.3365097,20.0280355 2.53396122,20.3491557 2.77114681,20.6040794 C3.00808864,20.8594963 3.27647645,21.0559898 3.5685097,21.188136 C3.86103047,21.3204054 4.15769529,21.3874647 4.45021607,21.3874647 L6.08955125,21.3874647 L6.08955125,19.8957661 L4.9011856,19.8957661 C4.69142382,19.8957661 4.52249307,19.8430062 4.39890305,19.739089 C4.27129086,19.631597 4.16695845,19.4855212 4.08883102,19.3054227 C4.00863158,19.1212563 3.9532964,18.9123125 3.92428809,18.6837686 C3.89467036,18.4537455 3.87967867,18.2223664 3.87967867,17.9961647 L3.87967867,13.8456406 C3.87967867,13.2626935 3.79838227,12.7709667 3.63822715,12.3848829 C3.47843767,12.0005249 3.28890859,11.6837192 3.07463712,11.4437112 C2.85951247,11.2033334 2.63707479,11.0258236 2.4132964,10.9166057 C2.2447313,10.8345075 2.10200554,10.7794055 1.98109695,10.7496972 C2.10298061,10.7085248 2.24887535,10.6406027 2.41634349,10.5469169 C2.63939058,10.4224135 2.86097507,10.2338094 3.07536842,9.98615858 C3.28927424,9.73912411 3.47855956,9.42305807 3.63810526,9.04634284 C3.79850416,8.66802509 3.87980055,8.20329459 3.87980055,7.66509476 L3.87980055,3.49188883 C3.87980055,3.25052482 3.89479224,3.01150295 3.92440997,2.7812333 C3.9532964,2.55293598 4.0085097,2.34793683 4.08846537,2.17178301 C4.16647091,1.99920405 4.27092521,1.85694967 4.39890305,1.74884128 C4.52249307,1.64492408 4.69142382,1.59216423 4.9011856,1.59216423 L6.08955125,1.59216423 L6.08955125,0.100588883 L4.45021607,0.100588883 C4.15769529,0.101205236 3.86103047,0.168141221 3.56863158,0.3002874 L3.56863158,0.3002874 Z" id="Shape"></path>
                    <path d="M25.3301053,9.93007041 C25.1002327,9.93007041 24.8748698,9.87102375 24.659867,9.75477949 C24.4429141,9.63804215 24.2487535,9.46373739 24.082626,9.23654951 C23.9143047,9.00751257 23.7769418,8.72571577 23.6745596,8.39929499 C23.5715679,8.07312074 23.5196454,7.70343194 23.5196454,7.30058333 L23.5196454,3.15018248 C23.5196454,2.65894878 23.4422493,2.21751644 23.2895291,1.8383358 C23.1370526,1.46075767 22.9396011,1.13988407 22.7026593,0.884467199 C22.465108,0.628927059 22.1968421,0.43243358 21.9051745,0.3002874 C21.6127756,0.168141221 21.3159889,0.101081966 21.02359,0.101081966 L19.3843767,0.101081966 L19.3843767,1.59265731 L20.5727424,1.59265731 C20.7823823,1.59265731 20.9510693,1.64541717 21.0747812,1.74933436 C21.2019058,1.85657986 21.3059945,2.00240908 21.3849751,2.18300064 C21.464687,2.36679724 21.5199003,2.5759876 21.549518,2.80453146 C21.5791357,3.03825269 21.5941274,3.28491734 21.5941274,3.53774552 L21.5941274,7.66546457 C21.5941274,8.24878147 21.6754238,8.74050826 21.8355789,9.12609897 C21.9954903,9.51168969 22.1850194,9.82812555 22.3989252,10.0672707 C22.6134404,10.3078951 22.836,10.4854049 23.0602659,10.5943762 C23.2260277,10.6756115 23.3711911,10.7315764 23.492831,10.7612847 C23.3707036,10.8025804 23.2248089,10.8705025 23.0573407,10.9639417 C22.833928,11.0889382 22.6123435,11.2774191 22.3984377,11.5247001 C22.1848975,11.7712414 21.9956122,12.0874308 21.8359446,12.4645158 C21.6756676,12.8432034 21.5943712,13.3080571 21.5943712,13.8457639 L21.5943712,17.996288 C21.5943712,18.2342004 21.5793795,18.473099 21.5497618,18.7068203 C21.5205097,18.9353641 21.4652964,19.1406098 21.3857064,19.3159007 C21.3069695,19.4895891 21.2023934,19.6318435 21.0750249,19.7392123 C20.9515568,19.843376 20.7827479,19.8958893 20.5729861,19.8958893 L19.3846205,19.8958893 L19.3846205,21.3874647 L21.0238338,21.3874647 C21.3159889,21.3874647 21.6127756,21.3204054 21.9054183,21.188136 C22.1972078,21.0561131 22.4654737,20.8596196 22.702903,20.6040794 C22.9398449,20.3487858 23.1372964,20.027789 23.2897729,19.6500876 C23.4424931,19.2711535 23.5198892,18.8298444 23.5198892,18.3383642 L23.5198892,14.2106451 C23.5198892,13.8236984 23.5721773,13.4655971 23.6748033,13.1464492 C23.7771856,12.8279178 23.9145485,12.5499424 24.0829917,12.3202891 C24.2496066,12.0928547 24.4443767,11.914482 24.6615734,11.7899786 C24.8771856,11.6665846 25.1020609,11.6040864 25.3304709,11.6040864 L25.3914127,11.6040864 L25.3914127,9.93007041 L25.3301053,9.93007041 L25.3301053,9.93007041 Z" id="Shape"></path>
                </g>
                <ellipse id="Oval" fill="#000000" cx="22" cy="37.6659756" rx="1.09695291" ry="1.10943621"></ellipse>
                <ellipse id="Oval" fill="#000000" cx="26.3878116" cy="37.6659756" rx="1.09695291" ry="1.10943621"></ellipse>
                <ellipse id="Oval" fill="#000000" cx="17.6121884" cy="37.6659756" rx="1.09695291" ry="1.10943621"></ellipse>
            </g>
        </g>
        <g id="Shop" sketch:type="MSLayerGroup" transform="translate(196.000000, 0.000000)">
            <g id="shop" transform="translate(169.000000, 3.000000)">
                <mask id="mask-2" sketch:name="Rectangle 1" fill="white">
                    <use xlink:href="#path-1"></use>
                </mask>
                <use id="Rectangle-1" stroke="#979797" fill="#F0F0F0" sketch:type="MSShapeGroup" xlink:href="#path-1"></use>
                <rect id="Rectangle-8" fill="#BABABA" sketch:type="MSShapeGroup" mask="url(#mask-2)" x="12" y="70" width="196" height="100"></rect>
                <g id="ZALORA-logo" mask="url(#mask-2)" fill="#0A0B09" sketch:type="MSShapeGroup">
                    <g transform="translate(12.000000, 41.000000)">
                        <path d="M14.680427,1.19889474 L14.6763483,0.536684211 L0.755003745,0.536684211 L0.755003745,1.93405263 L12.1457715,1.93405263 L0.191696629,17.1667895 L0.191696629,17.7247895 L14.7606404,17.7247895 L14.7606404,16.3264737 L2.73224345,16.3264737 L14.680427,1.19889474" id="Fill-1"></path>
                        <path d="M28.5564532,0.412578947 L20.9624569,17.7247895 L22.5907453,17.7247895 L25.1471536,11.8833158 L32.8431161,11.8833158 L35.4004307,17.7247895 L37.0278127,17.7247895 L29.4333633,0.412578947 L28.5564532,0.412578947 L28.5564532,0.412578947 Z M32.2335843,10.4859474 L25.7566854,10.4859474 L28.9838052,3.069 L32.2335843,10.4859474 L32.2335843,10.4859474 Z" id="Fill-2"></path>
                        <path d="M46.0833258,0.536684211 L44.5320787,0.536684211 L44.5320787,17.7247895 L54.0625281,17.7247895 L54.0625281,16.3264737 L46.0833258,16.3264737 L46.0833258,0.536684211" id="Fill-3"></path>
                        <path d="M69.5636704,0.313578947 C64.7019176,0.313578947 60.8920037,4.18594737 60.8920037,9.12978947 C60.8920037,14.0755263 64.7019176,17.9478947 69.5636704,17.9478947 C74.4535206,17.9478947 78.2833745,14.0755263 78.2833745,9.12978947 C78.2833745,4.18594737 74.4535206,0.313578947 69.5636704,0.313578947 L69.5636704,0.313578947 Z M69.6117079,16.4264211 C65.6449925,16.4264211 62.5379663,13.2219474 62.5379663,9.12978947 C62.5379663,5.03952632 65.6449925,1.836 69.6117079,1.836 C73.5521386,1.836 76.6383184,5.03952632 76.6383184,9.12978947 C76.6383184,13.2219474 73.5521386,16.4264211 69.6117079,16.4264211 L69.6117079,16.4264211 Z" id="Fill-4"></path>
                        <path d="M93.8552135,9.18757895 C95.7767116,8.35957895 96.7510562,6.96789474 96.7510562,5.04710526 C96.7510562,2.22252632 94.6954157,0.536684211 91.251221,0.536684211 L86.9591199,0.536684211 L86.9591199,17.7247895 L88.510367,17.7247895 L88.510367,9.63142105 L90.5406292,9.63142105 C92.4435468,9.63142105 93.0295131,9.92415789 94.9156629,13.0253684 L97.7757041,17.7247895 L99.5984082,17.7247895 L95.8020899,11.6436316 C95.0874195,10.5224211 94.5105169,9.66457895 93.8552135,9.18757895 L93.8552135,9.18757895 Z M88.510367,1.93405263 L90.9901873,1.93405263 C93.6435768,1.93405263 95.1050936,3.04815789 95.1050936,5.07126316 C95.1050936,7.11 93.6612509,8.23310526 91.0382247,8.23310526 L88.510367,8.23310526 L88.510367,1.93405263 L88.510367,1.93405263 Z" id="Fill-5"></path>
                        <path d="M113.057506,0.412578947 L112.181049,0.412578947 L104.586146,17.7247895 L106.214434,17.7247895 L108.771749,11.8833158 L116.466352,11.8833158 L119.02412,17.7247895 L120.651502,17.7247895 L113.057506,0.412578947 L113.057506,0.412578947 Z M115.857273,10.4859474 L109.380375,10.4859474 L112.607948,3.069 L115.857273,10.4859474 L115.857273,10.4859474 Z" id="Fill-6"></path>
                    </g>
                </g>
                <rect id="Rectangle-9" stroke="#000000" sketch:type="MSShapeGroup" mask="url(#mask-2)" x="72" y="109" width="76" height="23"></rect>
                <text id="OH-YEAH-&gt;" sketch:type="MSTextLayer" mask="url(#mask-2)" font-family="Apercu" font-size="12" font-weight="normal" fill="#2D2D29">
                    <tspan x="83" y="125">OH YEAH &gt;</tspan>
                </text>
                <g id="header" mask="url(#mask-2)">
                    <g transform="translate(12.000000, 8.000000)">
                        <g id="Oval-1-+-Oval-1-+-Oval-2" transform="translate(0.000000, 5.000000)">
                            <circle id="Oval-1" fill="#979797" sketch:type="MSShapeGroup" cx="5" cy="5" r="5"></circle>
                            <circle id="Oval-1" fill="#979797" sketch:type="MSShapeGroup" cx="22" cy="5" r="5"></circle>
                            <circle id="Oval-2" fill="#979797" sketch:type="MSShapeGroup" cx="39" cy="5" r="5"></circle>
                        </g>
                        <g id="Rectangle-2-+-https://zalora.sg" transform="translate(55.000000, 0.000000)">
                            <rect id="Rectangle-2" stroke="#979797" fill="#F0F0F0" sketch:type="MSShapeGroup" x="0" y="0" width="145" height="20" rx="2"></rect>
                            <text id="https://zalora.com" sketch:type="MSTextLayer" font-family="Apercu" font-size="10" font-weight="normal" fill="#2D2D29">
                                <tspan x="6" y="13">https://zalora.com</tspan>
                            </text>
                        </g>
                    </g>
                </g>
            </g>
            <g id="phone" transform="translate(366.000000, 43.000000)" sketch:type="MSShapeGroup">
                <rect id="Rectangle-3" stroke="#979797" fill="#F0F0F0" x="0" y="0" width="78.0371094" height="150" rx="9"></rect>
                <rect id="Rectangle-4" stroke="#979797" fill="#F0F0F0" x="4" y="13" width="70" height="122"></rect>
                <rect id="Rectangle-5" fill="#C1C1C1" x="31" y="6" width="16" height="2"></rect>
                <g id="Z" transform="translate(26.000000, 54.000000)" fill="#0A0B09">
                    <path d="M26.3623724,2.06476316 L26.3550482,0.924289474 L1.35579775,0.924289474 L1.35579775,3.33086842 L21.8107657,3.33086842 L0.344239165,29.5650263 L0.344239165,30.5260263 L26.5064157,30.5260263 L26.5064157,28.1178158 L4.90642536,28.1178158 L26.3623724,2.06476316" id="Fill-1"></path>
                </g>
            </g>
            <text id="Alice" sketch:type="MSTextLayer" font-family="Apercu" font-size="20" font-weight="normal" fill="#000000">
                <tspan x="112" y="19">Alice</tspan>
            </text>
            <text id="github.com/zalora/sh" sketch:type="MSTextLayer" font-family="Apercu" font-size="14" font-weight="normal" fill="#000000">
                <tspan x="0" y="38">github.com/zalora/shop</tspan>
            </text>
        </g>
        <g id="styleguide-+-Styleguide-+-github.com/zalora/st" sketch:type="MSLayerGroup" transform="translate(163.000000, 389.000000)">
            <g id="styleguide" transform="translate(201.000000, 0.000000)">
                <mask id="mask-4" sketch:name="Rectangle 1" fill="white">
                    <use xlink:href="#path-3"></use>
                </mask>
                <use id="Rectangle-1" stroke="#979797" fill="#F0F0F0" sketch:type="MSShapeGroup" xlink:href="#path-3"></use>
                <g id="ZALORA-logo" mask="url(#mask-4)" fill="#0A0B09" sketch:type="MSShapeGroup">
                    <g transform="translate(28.000000, 67.000000)">
                        <path d="M20.5040674,1.59852632 L20.4983708,0.715578947 L1.05450936,0.715578947 L1.05450936,2.57873684 L16.9639288,2.57873684 L0.267741573,22.8890526 L0.267741573,23.6330526 L20.6161011,23.6330526 L20.6161011,21.7686316 L3.81610861,21.7686316 L20.5040674,1.59852632" id="Fill-1"></path>
                        <path d="M39.884633,0.550105263 L29.2781423,23.6330526 L31.5523633,23.6330526 L35.1228839,15.8444211 L45.8717903,15.8444211 L49.4435768,23.6330526 L51.7165318,23.6330526 L41.1094082,0.550105263 L39.884633,0.550105263 L39.884633,0.550105263 Z M45.0204607,13.9812632 L35.9742135,13.9812632 L40.4815131,4.092 L45.0204607,13.9812632 L45.0204607,13.9812632 Z" id="Fill-2"></path>
                        <path d="M64.3643146,0.715578947 L62.1976966,0.715578947 L62.1976966,23.6330526 L75.5088202,23.6330526 L75.5088202,21.7686316 L64.3643146,21.7686316 L64.3643146,0.715578947" id="Fill-3"></path>
                        <path d="M97.159176,0.418105263 C90.368794,0.418105263 85.0475094,5.58126316 85.0475094,12.1730526 C85.0475094,18.7673684 90.368794,23.9305263 97.159176,23.9305263 C103.988801,23.9305263 109.337936,18.7673684 109.337936,12.1730526 C109.337936,5.58126316 103.988801,0.418105263 97.159176,0.418105263 L97.159176,0.418105263 Z M97.2262697,21.9018947 C91.6859813,21.9018947 87.3464157,17.6292632 87.3464157,12.1730526 C87.3464157,6.71936842 91.6859813,2.448 97.2262697,2.448 C102.729846,2.448 107.040296,6.71936842 107.040296,12.1730526 C107.040296,17.6292632 102.729846,21.9018947 97.2262697,21.9018947 L97.2262697,21.9018947 Z" id="Fill-4"></path>
                        <path d="M131.087034,12.2501053 C133.770779,11.1461053 135.13164,9.29052632 135.13164,6.72947368 C135.13164,2.96336842 132.260539,0.715578947 127.450052,0.715578947 L121.4553,0.715578947 L121.4553,23.6330526 L123.621918,23.6330526 L123.621918,12.8418947 L126.457573,12.8418947 C129.115367,12.8418947 129.933783,13.2322105 132.568157,17.3671579 L136.56276,23.6330526 L139.108521,23.6330526 L133.806225,15.5248421 C132.808049,14.0298947 132.002292,12.8861053 131.087034,12.2501053 L131.087034,12.2501053 Z M123.621918,2.57873684 L127.085468,2.57873684 C130.791442,2.57873684 132.832734,4.06421053 132.832734,6.76168421 C132.832734,9.48 130.816127,10.9774737 127.152562,10.9774737 L123.621918,10.9774737 L123.621918,2.57873684 L123.621918,2.57873684 Z" id="Fill-5"></path>
                        <path d="M157.906764,0.550105263 L156.682622,0.550105263 L146.074865,23.6330526 L148.349086,23.6330526 L151.920873,15.8444211 L162.66788,15.8444211 L166.2403,23.6330526 L168.513255,23.6330526 L157.906764,0.550105263 L157.906764,0.550105263 Z M161.817184,13.9812632 L152.770936,13.9812632 L157.278869,4.092 L161.817184,13.9812632 L161.817184,13.9812632 Z" id="Fill-6"></path>
                    </g>
                </g>
                <text sketch:type="MSTextLayer" mask="url(#mask-4)" font-family="Apercu" font-size="18" font-weight="normal" fill="#2D2D29">
                    <tspan x="71" y="116">styleguide</tspan>
                </text>
                <g id="header" mask="url(#mask-4)">
                    <g transform="translate(12.000000, 8.000000)">
                        <g id="Oval-1-+-Oval-1-+-Oval-2" transform="translate(0.000000, 5.000000)">
                            <circle id="Oval-1" fill="#979797" sketch:type="MSShapeGroup" cx="5" cy="5" r="5"></circle>
                            <circle id="Oval-1" fill="#979797" sketch:type="MSShapeGroup" cx="22" cy="5" r="5"></circle>
                            <circle id="Oval-2" fill="#979797" sketch:type="MSShapeGroup" cx="39" cy="5" r="5"></circle>
                        </g>
                        <g id="Rectangle-2-+-https://zalora.sg" transform="translate(55.000000, 0.000000)">
                            <rect id="Rectangle-2" stroke="#979797" fill="#F0F0F0" sketch:type="MSShapeGroup" x="0" y="0" width="145" height="20" rx="2"></rect>
                            <text id="https://styleguide.z" sketch:type="MSTextLayer" font-family="Apercu" font-size="10" font-weight="normal" fill="#2D2D29">
                                <tspan x="6" y="13">https://styleguide.zalora.com</tspan>
                            </text>
                        </g>
                    </g>
                </g>
            </g>
            <text id="Styleguide" sketch:type="MSTextLayer" font-family="Apercu" font-size="20" font-weight="normal" fill="#000000">
                <tspan x="95" y="151">Styleguide</tspan>
            </text>
            <text id="github.com/zalora/st" sketch:type="MSTextLayer" font-family="Apercu" font-size="14" font-weight="normal" fill="#000000">
                <tspan x="0" y="170">github.com/zalora/styleguide</tspan>
            </text>
        </g>
    </g>
</svg>