<?xml version="1.0" encoding="utf-8"?>
<!-- Generator: Adobe Illustrator 18.0.0, SVG Export Plug-In . SVG Version: 6.00 Build 0)  -->
<!DOCTYPE svg PUBLIC "-//W3C//DTD SVG 1.1//EN" "http://www.w3.org/Graphics/SVG/1.1/DTD/svg11.dtd">
<svg version="1.1" id="Layer_1" xmlns="http://www.w3.org/2000/svg" xmlns:xlink="http://www.w3.org/1999/xlink" x="0px" y="0px"
	 viewBox="0 0 40 41" enable-background="new 0 0 40 41" xml:space="preserve">
<g>
	<path d="M12.052,24.496c0.194,1.198,0.858,1.91,2.04,1.91c1.166,0,2.024-0.761,2.024-2.186c0-1.473-0.875-2.218-2.024-2.218
		c-0.34,0-0.631,0.064-0.988,0.227l-0.68-0.907l2.348-3.27h-3.837v-1.554h6.313v0.583l-2.752,3.756
		c0.129-0.032,0.324-0.048,0.469-0.048c1.749,0,2.866,1.457,2.866,3.432c0,2.169-1.651,3.74-3.74,3.74
		c-1.943,0-3.578-1.36-3.708-3.254L12.052,24.496z"/>
	<path d="M29.423,22.164c0,3.578-1.409,5.796-4.08,5.796c-2.671,0-4.08-2.218-4.08-5.796c0-3.578,1.409-5.796,4.08-5.796
		C28.014,16.368,29.423,18.586,29.423,22.164z M22.979,22.164c0,2.655,0.761,4.242,2.363,4.242c1.603,0,2.364-1.586,2.364-4.242
		c0-2.655-0.761-4.242-2.364-4.242C23.74,17.922,22.979,19.509,22.979,22.164z"/>
</g>
<path d="M38.012,24.487v-0.008c-1.798,8.272-9.072,14.464-17.776,14.457C10.185,38.921,2.056,30.687,2.037,20.5
	C2.056,10.314,10.185,2.079,20.236,2.064c7.342,0,13.657,4.412,16.533,10.753l-6.635-3.89l-1.019,1.788l10.805,6.327l0.002-12.646
	h-2.036l0,0l-0.002,6.095C34.421,4.233,27.823,0,20.236,0C9.062,0,0,9.181,0,20.5C0,31.827,9.062,41,20.236,41
	C29.912,41,38.001,34.122,40,24.926L38.012,24.487z"/>
</svg>
