<?xml version="1.0" encoding="utf-8"?>
<!-- Generator: Adobe Illustrator 18.0.0, SVG Export Plug-In . SVG Version: 6.00 Build 0)  -->
<!DOCTYPE svg PUBLIC "-//W3C//DTD SVG 1.1//EN" "http://www.w3.org/Graphics/SVG/1.1/DTD/svg11.dtd">
<svg version="1.1" id="Layer_1" xmlns="http://www.w3.org/2000/svg" xmlns:xlink="http://www.w3.org/1999/xlink" x="0px" y="0px"
	 viewBox="0 0 20 10" enable-background="new 0 0 20 10" xml:space="preserve">
<g>
	<linearGradient id="SVGID_1_" gradientUnits="userSpaceOnUse" x1="1.3914" y1="0.0692" x2="7.2056" y2="6.7828">
		<stop  offset="0" style="stop-color:#F7F7F7"/>
		<stop  offset="1" style="stop-color:#828282"/>
	</linearGradient>
	<path opacity="0.5" fill="url(#SVGID_1_)" d="M0.249,5.423V2.143c0,0,0.312-1.897,3.538-1.897c3.225,0,5.41,0.205,5.41,2.589
		c0,2.384-2.602,4.844-4.474,4.844C2.851,7.679,0.249,7.064,0.249,5.423z"/>
	
		<linearGradient id="SVGID_2_" gradientUnits="userSpaceOnUse" x1="357.6594" y1="0.0046" x2="351.4173" y2="7.637" gradientTransform="matrix(-1 0 0 1 370.3555 0)">
		<stop  offset="0" style="stop-color:#F7F7F7"/>
		<stop  offset="1" style="stop-color:#828282"/>
	</linearGradient>
	<path opacity="0.5" fill="url(#SVGID_2_)" d="M19.688,5.423V2.143c0,0-0.312-1.897-3.538-1.897c-3.225,0-5.41,0.205-5.41,2.589
		c0,2.384,2.601,4.844,4.474,4.844C17.086,7.679,19.688,7.064,19.688,5.423z"/>
	
		<radialGradient id="SVGID_3_" cx="9.9688" cy="4.0127" r="7.5986" gradientTransform="matrix(1 0 0 0.9875 0 0)" gradientUnits="userSpaceOnUse">
		<stop  offset="0" style="stop-color:#4D4D4D"/>
		<stop  offset="1" style="stop-color:#333333"/>
	</radialGradient>
	<path fill="url(#SVGID_3_)" d="M19.934,2.103C19.92,2.017,19.549,0,16.15,0c-1.104,0-2.114,0.028-2.97,0.167V0.163H6.773V0.17
		C5.914,0.028,4.898,0,3.787,0C0.388,0,0.017,2.017,0,2.143v3.281c0,1.719,2.448,2.502,4.723,2.502c1.975,0,4.724-2.565,4.724-5.09
		c0-0.421-0.07-0.774-0.189-1.08C9.436,1.622,9.693,1.473,9.98,1.482c0.236,0.005,0.462,0.122,0.674,0.337
		c-0.103,0.291-0.164,0.624-0.164,1.016c0,2.525,2.748,5.09,4.723,5.09c2.275,0,4.724-0.783,4.724-2.502L19.934,2.103z M4.723,7.433
		c-1.698,0-4.224-0.536-4.224-2.01L0.496,2.184c0.012-0.07,0.339-1.692,3.291-1.692c3.568,0,5.16,0.338,5.16,2.343
		C8.948,5.055,6.468,7.433,4.723,7.433z M9.991,0.99c-0.397-0.006-0.73,0.154-0.965,0.314c-0.189-0.268-0.44-0.48-0.739-0.65h3.365
		c-0.315,0.179-0.575,0.407-0.767,0.696C10.611,1.118,10.313,0.996,9.991,0.99z M19.438,5.423c0,1.474-2.526,2.01-4.224,2.01
		c-1.745,0-4.224-2.379-4.224-4.599c0-2.004,1.593-2.343,5.161-2.343c2.952,0,3.279,1.623,3.288,1.651V5.423z"/>
</g>
</svg>
