<?xml version="1.0" encoding="utf-8"?>
<!-- Generator: Adobe Illustrator 18.0.0, SVG Export Plug-In . SVG Version: 6.00 Build 0)  -->
<!DOCTYPE svg PUBLIC "-//W3C//DTD SVG 1.1//EN" "http://www.w3.org/Graphics/SVG/1.1/DTD/svg11.dtd">
<svg version="1.1" id="Layer_1" xmlns="http://www.w3.org/2000/svg" xmlns:xlink="http://www.w3.org/1999/xlink" x="0px" y="0px"
	 viewBox="0 0 36 36" enable-background="new 0 0 36 36" xml:space="preserve">
<g>
	<path stroke="#000000" stroke-miterlimit="10" d="M25.95,35.253L25.95,35.253c-3.178,0-9.601-1.064-16.92-8.192
		c-4.377-4.265-7.108-8.847-8.118-13.618c-0.745-3.521-0.294-6.04-0.09-6.882c-0.059-0.585,0.072-1.168,0.39-1.734
		c0.582-1.062,1.991-2.832,2.841-3.567c1.323-1.146,2.542-0.995,3.59,0.441l5.553,7.622c0.736,1.023,0.547,2.451-0.42,3.185
		L10,14.626c-0.118,0.092-0.252,0.17-0.399,0.233c-0.391,1.71,1.183,4.314,4.796,7.945c2.847,2.864,4.811,3.465,5.958,3.465
		c0.336,0,0.584-0.055,0.745-0.106c0.058-0.178,0.141-0.342,0.246-0.49l2.011-2.865c0.417-0.584,1.101-0.93,1.831-0.93
		c0.469,0,0.923,0.142,1.314,0.409l7.748,5.336c0.738,0.507,1.14,1.055,1.231,1.675c0.09,0.615-0.131,1.244-0.675,1.922
		c-0.699,0.881-2.408,2.358-3.448,2.978c-0.535,0.322-1.089,0.47-1.634,0.452C29.134,34.905,27.83,35.253,25.95,35.253z
		 M5.738,1.712c-0.247,0-0.552,0.155-0.905,0.461c-0.74,0.639-2.064,2.305-2.577,3.241c-0.21,0.373-0.288,0.74-0.236,1.096
		l0.018,0.121L2.007,6.751c-0.25,0.964-2.153,9.695,7.854,19.446c7.016,6.833,13.092,7.853,16.089,7.853
		c1.924,0,3.099-0.393,3.389-0.544l0.161-0.084l0.18,0.02c0.346,0.038,0.7-0.055,1.067-0.276c0.912-0.544,2.518-1.929,3.127-2.697
		c0.32-0.4,0.462-0.734,0.424-0.994c-0.039-0.266-0.282-0.554-0.723-0.857l-7.747-5.335c-0.48-0.329-1.181-0.215-1.498,0.226
		l-2.01,2.863c-0.061,0.085-0.1,0.19-0.118,0.314l-0.043,0.29l-0.253,0.145c-0.185,0.106-0.706,0.353-1.551,0.353
		c-1.373,0-3.667-0.662-6.803-3.818c-4.284-4.306-5.824-7.229-4.993-9.479l0.112-0.301l0.311-0.074
		c0.121-0.029,0.217-0.071,0.292-0.13l2.784-2.122c0.451-0.343,0.529-1.024,0.174-1.517L6.68,2.414
		C6.168,1.712,5.845,1.712,5.738,1.712z"/>
</g>
</svg>
