<?xml version="1.0" encoding="utf-8"?>
<!-- Generator: Adobe Illustrator 18.0.0, SVG Export Plug-In . SVG Version: 6.00 Build 0)  -->
<!DOCTYPE svg PUBLIC "-//W3C//DTD SVG 1.1//EN" "http://www.w3.org/Graphics/SVG/1.1/DTD/svg11.dtd">
<svg version="1.1" id="Layer_1" xmlns="http://www.w3.org/2000/svg" xmlns:xlink="http://www.w3.org/1999/xlink" x="0px" y="0px"
	 viewBox="0 0 56 40" enable-background="new 0 0 56 40" xml:space="preserve">
<path stroke="#000000" stroke-miterlimit="10" d="M18.266,32.357c0.095,0.66,0.074,1.339-0.059,1.991h18.495
	c-0.1-0.659-0.083-1.338,0.046-1.991H18.266z M55.369,27.344l-2.508-1.448c-0.12-0.952-0.378-3.006-0.422-3.547
	c-0.099-1.189-0.845-2.695-2.248-3.193c-0.337-0.12-0.877-0.281-1.477-0.46c-0.899-0.268-2.573-0.768-2.899-0.988
	c-0.973-0.755-4.23-3.958-5.655-5.391l-0.108-0.109c-0.915-0.923-1.706-1.721-3.468-1.721h-3.382V4.859
	c0-1.812-1.289-3.455-3.364-4.288L29.661,0.5H4.374L4.197,0.571c-1.911,0.767-3.284,2.29-3.674,4.074L0.5,30.764l0.023,0.214
	c0.441,2.019,1.99,3.386,3.764,3.386c0.108,0,0.217-0.005,0.326-0.016h4.171c-0.133-0.652-0.154-1.331-0.059-1.991H4.564
	l-0.108,0.006C3.473,32.48,2.72,31.577,2.48,30.648V4.976c0.265-1.034,1.124-1.968,2.284-2.484H29.27
	c0.936,0.421,1.951,1.261,1.951,2.368v16.535h11.415l1.96-2.117c0.003,0.002,0.006,0.004,0.008,0.007
	c0.515,0.399,1.683,0.765,3.545,1.321c0.561,0.167,1.065,0.317,1.381,0.429c0.544,0.193,0.892,0.985,0.933,1.481
	c0.062,0.753,0.476,3.988,0.494,4.126l0.063,0.49l2.392,1.382l0.071,3.192l-2.587,0.653h-4.71c0.129,0.653,0.145,1.332,0.046,1.991
	h4.787l4.479-1.101L55.369,27.344z M41.775,19.403h-8.573v-6.925h3.382c0.94,0,1.246,0.309,2.065,1.136l0.11,0.111
	c0.033,0.034,2.528,2.537,4.35,4.237L41.775,19.403z"/>
<path stroke="#000000" stroke-miterlimit="10" d="M41.817,39.5c-3.33,0-6.04-2.697-6.04-6.012c0-3.316,2.709-6.013,6.04-6.013
	s6.039,2.697,6.039,6.013C47.857,36.803,45.148,39.5,41.817,39.5z M41.817,29.466c-2.228,0-4.04,1.804-4.04,4.022
	c0,2.217,1.812,4.021,4.04,4.021c2.228,0,4.039-1.804,4.039-4.021C45.857,31.27,44.045,29.466,41.817,29.466z"/>
<path stroke="#000000" stroke-miterlimit="10" d="M13.748,39.5c-3.33,0-6.04-2.697-6.04-6.012c0-3.316,2.709-6.013,6.04-6.013
	c3.33,0,6.04,2.697,6.04,6.013C19.787,36.803,17.078,39.5,13.748,39.5z M13.748,29.466c-2.228,0-4.04,1.804-4.04,4.022
	c0,2.217,1.812,4.021,4.04,4.021c2.227,0,4.04-1.804,4.04-4.021C17.787,31.27,15.975,29.466,13.748,29.466z"/>
</svg>
