<?xml version="1.0" encoding="utf-8"?>
<!-- Generator: Adobe Illustrator 18.0.0, SVG Export Plug-In . SVG Version: 6.00 Build 0)  -->
<!DOCTYPE svg PUBLIC "-//W3C//DTD SVG 1.1//EN" "http://www.w3.org/Graphics/SVG/1.1/DTD/svg11.dtd">
<svg version="1.1" id="Layer_1" xmlns="http://www.w3.org/2000/svg" xmlns:xlink="http://www.w3.org/1999/xlink" x="0px" y="0px"
	 viewBox="0 0 30 21" enable-background="new 0 0 30 21" xml:space="preserve">
<g id="Rounded_Rectangle_6_copy_3_3_">
	<g>
		<path fill-rule="evenodd" clip-rule="evenodd" d="M29.026,13.703c0.153-0.51,0.484-1.612,0.584-1.902
			c0.219-0.638,0.157-1.445-0.494-1.712c-0.157-0.064-0.414-0.151-0.7-0.247c-0.429-0.144-1.228-0.412-1.355-0.53
			c-0.358-0.405-1.401-2.123-1.85-2.891l-0.034-0.058c-0.288-0.495-0.536-0.923-1.498-0.923h-1.596l1.417-3.019
			c0.416-0.972-0.05-2.153-1.228-2.3l-1.156-0.016c-0.099-0.014-0.19-0.023-0.258-0.023H7.954c-0.45,0-0.814,0.365-0.814,0.814
			c0,0.45,0.365,0.814,0.814,0.814h12.921c0.365,0.205,0.647,0.419,0.415,0.96l-4.045,9.119h7.233l1.556-1.386
			c0.001,0.001,0.002,0.002,0.003,0.004c0.19,0.214,0.492,0.16,1.381,0.458c0.268,0.09,0.258,0.17,0.405,0.23
			c0.253,0.104,0.386,0.779,0.295,1.045c-0.139,0.404-0.781,1.889-0.802,1.962l-0.078,0.263l1.114,0.866l-0.568,1.211l-1.311,0.35
			h-1.925c0.131-1.296-0.682-2.243-2.133-2.243c-1.447,0-3.066,0.942-4.045,2.233c-0.067-0.019-0.133-0.042-0.206-0.042H7.39
			c-0.415,0-0.752,0.336-0.752,0.752c0,0.415,0.336,0.752,0.752,0.752h10.226C17.184,19.799,18.017,21,19.654,21
			c1.64,0,3.503-1.205,4.399-2.763h2.029l2.698-0.59l1.283-3.166L29.026,13.703z M23.964,10.346H19.66l1.589-3.589h1.596
			c0.513,0,0.985,0.166,1.243,0.609l0.035,0.059c0.01,0.018,0.422,1.11,1.027,2.022L23.964,10.346z M23.092,17.775
			c-0.509,1.189-1.777,2.032-2.981,2.032c-1.192,0-1.755-0.827-1.272-1.998c0.008-0.018,0.015-0.035,0.022-0.053
			c0.516-1.179,1.899-2.012,3.096-2.012C23.161,15.743,23.601,16.586,23.092,17.775z M5.386,5.593h10.772
			c0.415,0,0.752-0.336,0.752-0.752c0-0.415-0.336-0.752-0.752-0.752H5.386c-0.415,0-0.752,0.336-0.752,0.752
			C4.635,5.257,4.971,5.593,5.386,5.593z M3.131,9.351h10.772c0.415,0,0.752-0.336,0.752-0.752c0-0.415-0.336-0.752-0.752-0.752
			H3.131C2.716,7.848,2.38,8.185,2.38,8.6C2.38,9.015,2.716,9.351,3.131,9.351z M12.275,12.608c0-0.415-0.336-0.752-0.752-0.752
			H0.752C0.336,11.856,0,12.193,0,12.608c0,0.415,0.336,0.752,0.752,0.752h10.772C11.939,13.359,12.275,13.023,12.275,12.608z"/>
	</g>
</g>
</svg>
