<?xml version="1.0" encoding="utf-8"?>
<!-- Generator: Adobe Illustrator 18.0.0, SVG Export Plug-In . SVG Version: 6.00 Build 0)  -->
<!DOCTYPE svg PUBLIC "-//W3C//DTD SVG 1.1//EN" "http://www.w3.org/Graphics/SVG/1.1/DTD/svg11.dtd">
<svg version="1.1" id="Layer_1" xmlns="http://www.w3.org/2000/svg" xmlns:xlink="http://www.w3.org/1999/xlink" x="0px" y="0px"
	 viewBox="0 0 51 35" enable-background="new 0 0 51 35" xml:space="preserve">
<path fill-rule="evenodd" clip-rule="evenodd" d="M0,35.047h51V9.343H0V35.047z M2.321,11.682h46.358v21.025H2.321V11.682z
	 M2.321,11.682"/>
<rect x="2.339" y="4.679" fill-rule="evenodd" clip-rule="evenodd" width="46.73" height="2.328"/>
<rect x="4.679" y="0" fill-rule="evenodd" clip-rule="evenodd" width="42.051" height="2.339"/>
<g>
	<path d="M27.341,19.617c-0.453-0.873-0.94-1.242-1.628-1.242c-0.638,0-1.125,0.453-1.125,1.074c0,2.048,5.018,1.779,5.018,5.27
		c0,1.947-1.074,3.205-2.753,3.558v1.477h-2.047v-1.511c-1.612-0.386-2.702-1.695-3.005-3.156l1.762-1.108
		c0.352,1.259,1.057,2.383,2.333,2.383c0.907,0,1.528-0.453,1.528-1.527c0-1.947-4.917-1.561-4.917-5.287
		c0-1.477,0.923-2.686,2.299-3.072v-1.494h2.047v1.528c1.007,0.285,1.78,0.973,2.249,1.98L27.341,19.617z"/>
</g>
</svg>
