<?xml version="1.0" encoding="utf-8"?>
<!-- Generator: Adobe Illustrator 18.0.0, SVG Export Plug-In . SVG Version: 6.00 Build 0)  -->
<!DOCTYPE svg PUBLIC "-//W3C//DTD SVG 1.1//EN" "http://www.w3.org/Graphics/SVG/1.1/DTD/svg11.dtd">
<svg version="1.1" id="Layer_1" xmlns="http://www.w3.org/2000/svg" xmlns:xlink="http://www.w3.org/1999/xlink" x="0px" y="0px"
	 viewBox="0 0 20 10" enable-background="new 0 0 20 10" xml:space="preserve">
<g>
	<path fill="none" stroke="#B3B3B3" stroke-width="0.3" stroke-miterlimit="10" d="M7.003,4.363c0,0,0.348-1.533,1.992-1.533
		c1.645,0,2.155,1.533,2.155,1.533"/>
	<line fill="none" stroke="#B3B3B3" stroke-width="0.3" stroke-miterlimit="10" x1="4.729" y1="2.021" x2="14.153" y2="2.021"/>
	<linearGradient id="SVGID_1_" gradientUnits="userSpaceOnUse" x1="13.4767" y1="1.7483" x2="13.4767" y2="7.8368">
		<stop  offset="0" style="stop-color:#CCCCCC"/>
		<stop  offset="1" style="stop-color:#666666"/>
	</linearGradient>
	<path fill="url(#SVGID_1_)" stroke="#B3B3B3" stroke-width="0.3" stroke-miterlimit="10" d="M9.994,2.44
		c0,0,0.298-0.543,2.826-0.543c1.866,0,3.037,0.179,3.037,0.179s1.898,0.332,1.898,2.786c0,2.797-1.084,4.701-3.126,4.701
		C12.589,9.562,7.175,6.139,9.994,2.44z"/>
	
		<linearGradient id="SVGID_2_" gradientUnits="userSpaceOnUse" x1="597.1792" y1="1.7483" x2="597.1792" y2="7.8368" gradientTransform="matrix(-1 0 0 1 601.668 0)">
		<stop  offset="0" style="stop-color:#CCCCCC"/>
		<stop  offset="1" style="stop-color:#666666"/>
	</linearGradient>
	<path fill="url(#SVGID_2_)" stroke="#B3B3B3" stroke-width="0.3" stroke-miterlimit="10" d="M7.971,2.44
		c0,0-0.298-0.543-2.826-0.543c-1.866,0-3.037,0.179-3.037,0.179S0.21,2.408,0.21,4.862c0,2.797,1.084,4.701,3.126,4.701
		C5.377,9.562,10.791,6.139,7.971,2.44z"/>
	<linearGradient id="SVGID_3_" gradientUnits="userSpaceOnUse" x1="17.299" y1="0.1399" x2="17.299" y2="4.6417">
		<stop  offset="0" style="stop-color:#B3B3B3"/>
		<stop  offset="1" style="stop-color:#4D4D4D"/>
	</linearGradient>
	<path fill="url(#SVGID_3_)" stroke="#FFFFFF" stroke-width="0.3" stroke-miterlimit="10" d="M16.683,0.25
		c0,0,3.112,2.716,1.851,4.839c-1.182,1.991-3.175-0.051-2.699-1.482C16.282,2.262,16.683,2.152,16.683,0.25z"/>
</g>
</svg>
